<svg width="16" height="17" viewBox="0 0 16 17" fill="none" xmlns="http://www.w3.org/2000/svg">
<path d="M5.43524 6.81847C5.43524 6.47877 5.57113 6.20701 5.77495 5.8673C5.97877 5.5276 6.25053 5.25584 6.65817 5.05202C7.06582 4.8482 7.5414 4.71231 8.01698 4.71231C8.49257 4.71231 8.96815 4.78025 9.30786 4.98408C9.7155 5.1879 9.98726 5.39172 10.1911 5.73142C10.3949 6.07113 10.4628 6.41083 10.4628 6.75053C10.4628 7.02229 10.3949 7.29406 10.259 7.49788C10.1231 7.7017 9.98726 7.90552 9.85138 8.0414C9.7155 8.17728 9.3758 8.44904 8.96815 8.85669C8.83227 8.99257 8.76433 9.06051 8.69639 9.12845C8.62845 9.19639 8.56051 9.26433 8.56051 9.33227C8.56051 9.40021 8.49257 9.46815 8.49257 9.53609C8.49257 9.60403 8.42463 9.73991 8.42463 9.8758C8.35669 10.2155 8.15287 10.4193 7.81316 10.4193C7.60934 10.4193 7.47346 10.3514 7.33758 10.2155C7.2017 10.0796 7.13376 9.94374 7.13376 9.67197C7.13376 9.40021 7.2017 9.12845 7.26964 8.92463C7.33758 8.72081 7.47346 8.51698 7.60934 8.3811C7.74522 8.24522 7.94904 8.0414 8.22081 7.83758C8.42463 7.63376 8.56051 7.49788 8.69639 7.42994C8.76433 7.362 8.90021 7.22611 8.96815 7.09023C9.03609 6.95435 9.03609 6.81847 9.03609 6.68259C9.03609 6.41083 8.96815 6.20701 8.76433 6.00318C8.56051 5.79936 8.28875 5.73142 8.01698 5.73142C7.67728 5.73142 7.40552 5.79936 7.2017 6.00318C6.99788 6.20701 6.862 6.47877 6.72611 6.81847C6.59023 7.22611 6.38641 7.362 6.04671 7.362C5.84289 7.362 5.70701 7.29406 5.57113 7.15817C5.50318 7.09023 5.43524 6.95435 5.43524 6.81847ZM7.8811 12.3896C7.67728 12.3896 7.47346 12.3217 7.33758 12.1858C7.2017 12.0499 7.13376 11.8461 7.13376 11.6423C7.13376 11.4384 7.2017 11.2346 7.33758 11.0987C7.47346 10.9628 7.67728 10.8949 7.8811 10.8949C8.08493 10.8949 8.28875 10.9628 8.42463 11.0987C8.56051 11.2346 8.62845 11.4384 8.62845 11.6423C8.62845 11.8461 8.56051 12.0499 8.42463 12.1858C8.28875 12.3217 8.08493 12.3896 7.8811 12.3896Z" fill="black" fill-opacity="0.6"/>
<path d="M8.01698 16.534C5.91083 16.534 3.87261 15.7187 2.37792 14.224C0.815287 12.6614 0 10.6231 0 8.51698C0 6.41083 0.815287 4.37261 2.37792 2.87792C3.87261 1.31529 5.84289 0.5 8.01698 0.5C10.1231 0.5 12.1614 1.31529 13.6561 2.80998C16.7813 5.93524 16.7813 11.0308 13.6561 14.1561C12.1614 15.6507 10.1231 16.534 8.01698 16.534ZM8.01698 1.85881C6.25053 1.85881 4.55202 2.53822 3.32909 3.82909C2.03822 5.05202 1.35881 6.75053 1.35881 8.51698C1.35881 10.2834 2.03822 11.982 3.32909 13.2049C4.55202 14.4278 6.25053 15.1752 8.01698 15.1752C9.78344 15.1752 11.482 14.4958 12.7049 13.2049C15.2866 10.6231 15.2866 6.41083 12.7049 3.82909C11.414 2.53822 9.78344 1.85881 8.01698 1.85881Z" fill="black" fill-opacity="0.6"/>
</svg>
