<svg width="18" height="19" viewBox="0 0 18 19" fill="none" xmlns="http://www.w3.org/2000/svg">
<path d="M5.68559 0.5C5.68559 0.5 8.03294 0.5 8.73714 2.37788C9.05012 3.23857 9.05012 4.09926 9.05012 4.80346M17.1093 8.55922C16.7181 5.35118 15.075 3.94277 12.4929 3.78628C10.7715 3.62979 9.98906 5.35118 9.05012 5.27293C8.18943 5.35118 7.32873 3.62979 5.68559 3.78628C3.18176 4.02102 1.53862 5.42942 1.06915 8.55922C0.521434 12.4715 3.33825 17.4009 5.60735 18.3398C6.78102 18.8093 7.71996 17.9486 9.05012 18.0268C10.302 18.1051 11.3975 18.8093 12.4929 18.3398C14.8402 17.4009 17.5788 12.4715 17.1093 8.55922Z" stroke="black" stroke-opacity="0.6" stroke-miterlimit="10" stroke-linecap="round" stroke-linejoin="round"/>
</svg>
