<svg width="19" height="19" viewBox="0 0 19 19" fill="none" xmlns="http://www.w3.org/2000/svg">
<path d="M2.96203 18.6499C2.88608 18.6499 2.73418 18.6499 2.65823 18.574C2.43038 18.4221 2.20253 18.1942 2.20253 17.8904V15.8398H1.51899C0.683544 15.8398 0 15.1562 0 14.3208V7.71319C0 6.87775 0.683544 6.19421 1.51899 6.19421H11.3924C12.2278 6.19421 12.9114 6.87775 12.9114 7.71319V14.3208C12.9114 15.1562 12.2278 15.8398 11.3924 15.8398H6.83544L3.41772 18.498C3.34177 18.6499 3.18987 18.6499 2.96203 18.6499ZM1.51899 7.71319V14.3208H2.96203C3.41772 14.3208 3.72152 14.6246 3.72152 15.0803V16.3714L6.07595 14.4727C6.22785 14.3967 6.4557 14.3208 6.60759 14.3208H11.3924V7.71319H1.51899Z" fill="black" fill-opacity="0.6"/>
<path d="M15.9494 13.1815C15.7975 13.1815 15.6456 13.1056 15.4937 13.0296L11.9241 10.2195C11.6203 9.99167 11.5443 9.46003 11.7722 9.15623C12 8.85243 12.5316 8.77648 12.8354 9.00433L15.1899 10.9031V9.61193C15.1899 9.15623 15.4937 8.85243 15.9494 8.85243H17.3924V2.16889H7.51899V6.72585C7.51899 7.18155 7.21519 7.48535 6.75949 7.48535C6.3038 7.48535 6 7.18155 6 6.72585V2.16889C6 1.33345 6.68354 0.649902 7.51899 0.649902H17.3924C18.2278 0.649902 18.9114 1.33345 18.9114 2.16889V8.77648C18.9114 9.61193 18.2278 10.2955 17.3924 10.2955H16.7089V12.4221C16.7089 12.7259 16.557 12.9537 16.2532 13.1056C16.1772 13.1815 16.0253 13.1815 15.9494 13.1815Z" fill="black" fill-opacity="0.6"/>
</svg>
