<svg width="16" height="18" viewBox="0 0 16 18" fill="none" xmlns="http://www.w3.org/2000/svg">
<path d="M13.6287 17.5H3.44304C3.01266 17.5 2.72574 17.2131 2.72574 16.7827C2.72574 16.3523 3.01266 16.0654 3.44304 16.0654H13.6287C13.7004 16.0654 13.7004 16.0654 13.7004 15.9937V2.00633C13.7004 1.9346 13.6287 1.9346 13.6287 1.9346H3.44304C3.44304 1.9346 3.37131 1.9346 3.37131 2.00633V14.6308C3.37131 15.0612 3.08439 15.3481 2.65401 15.3481C2.22363 15.3481 1.93671 15.0612 1.93671 14.6308V2.00633C1.93671 1.14557 2.65401 0.5 3.44304 0.5H13.6287C14.4895 0.5 15.135 1.14557 15.135 2.00633V15.9937C15.135 16.8544 14.4895 17.5 13.6287 17.5Z" fill="black" fill-opacity="0.6"/>
<path d="M7.81856 7.45781H4.66245C4.51899 7.45781 4.3038 7.31435 4.3038 7.09916C4.3038 6.88397 4.44726 6.74051 4.66245 6.74051H7.74683C7.96202 6.74051 8.10548 6.88397 8.10548 7.09916C8.17721 7.31435 7.96202 7.45781 7.81856 7.45781Z" fill="black" fill-opacity="0.6"/>
<path d="M7.81856 9.32279H4.66245C4.51899 9.32279 4.3038 9.1076 4.3038 8.96414C4.3038 8.74895 4.44726 8.60548 4.66245 8.60548H7.74683C7.96202 8.60548 8.10548 8.74895 8.10548 8.96414C8.17721 9.1076 7.96202 9.32279 7.81856 9.32279Z" fill="black" fill-opacity="0.6"/>
<path d="M7.81856 11.1878H4.66245C4.44726 11.1878 4.3038 11.0443 4.3038 10.8291C4.3038 10.6139 4.44726 10.4705 4.66245 10.4705H7.74683C7.96202 10.4705 8.10548 10.6139 8.10548 10.8291C8.17721 10.9726 7.96202 11.1878 7.81856 11.1878Z" fill="black" fill-opacity="0.6"/>
<path d="M7.81856 12.981H4.66245C4.44726 12.981 4.3038 12.8376 4.3038 12.6224C4.3038 12.4072 4.44726 12.2637 4.66245 12.2637H7.74683C7.96202 12.2637 8.10548 12.4072 8.10548 12.6224C8.17721 12.8376 7.96202 12.981 7.81856 12.981Z" fill="black" fill-opacity="0.6"/>
<path d="M7.81856 14.846H4.66245C4.51899 14.846 4.3038 14.7025 4.3038 14.4873C4.3038 14.2722 4.51899 14.1287 4.66245 14.1287H7.74683C7.96202 14.1287 8.10548 14.2722 8.10548 14.4873C8.17721 14.7025 7.96202 14.846 7.81856 14.846Z" fill="black" fill-opacity="0.6"/>
<path d="M12.1941 7.45781H9.1097C8.89451 7.45781 8.75105 7.31435 8.75105 7.09916C8.75105 6.88397 8.89451 6.74051 9.1097 6.74051H12.1941C12.4093 6.74051 12.5527 6.88397 12.5527 7.09916C12.5527 7.31435 12.4093 7.45781 12.1941 7.45781Z" fill="black" fill-opacity="0.6"/>
<path d="M12.1941 9.32279H9.1097C8.89451 9.32279 8.75105 9.17933 8.75105 8.96414C8.75105 8.74895 8.89451 8.60548 9.1097 8.60548H12.1941C12.4093 8.60548 12.5527 8.74895 12.5527 8.96414C12.5527 9.1076 12.4093 9.32279 12.1941 9.32279Z" fill="black" fill-opacity="0.6"/>
<path d="M12.1941 11.1878H9.1097C8.89451 11.1878 8.75105 11.0443 8.75105 10.8291C8.75105 10.6139 8.89451 10.4705 9.1097 10.4705H12.1941C12.4093 10.4705 12.5527 10.6139 12.5527 10.8291C12.5527 10.9726 12.4093 11.1878 12.1941 11.1878Z" fill="black" fill-opacity="0.6"/>
<path d="M12.1941 12.981H9.1097C8.89451 12.981 8.75105 12.8376 8.75105 12.6224C8.75105 12.4072 8.89451 12.2637 9.1097 12.2637H12.1941C12.4093 12.2637 12.5527 12.4072 12.5527 12.6224C12.5527 12.8376 12.4093 12.981 12.1941 12.981Z" fill="black" fill-opacity="0.6"/>
<path d="M12.1941 14.846H9.1097C8.89451 14.846 8.75105 14.7025 8.75105 14.4873C8.75105 14.2722 8.89451 14.1287 9.1097 14.1287H12.1941C12.4093 14.1287 12.5527 14.2722 12.5527 14.4873C12.5527 14.7025 12.4093 14.846 12.1941 14.846Z" fill="black" fill-opacity="0.6"/>
<path d="M7.53164 17.5H1.50633C0.645569 17.5 0 16.8544 0 15.9937V4.15823C0 3.79958 0 3.3692 0.35865 3.08228C0.7173 2.6519 1.14768 2.6519 2.00844 2.72363H2.43882C2.79747 2.72363 3.15612 3.01055 3.15612 3.44093C3.15612 3.87131 2.8692 4.15823 2.43882 4.15823H2.00844C1.79325 4.15823 1.57806 4.15823 1.4346 4.15823V16.0654C1.4346 16.1371 1.4346 16.1371 1.50633 16.1371H7.53164C7.96202 16.1371 8.24894 16.4241 8.24894 16.8544C8.24894 17.2131 7.96202 17.5 7.53164 17.5Z" fill="black" fill-opacity="0.6"/>
<path d="M12.1941 5.44937H4.73418C4.51899 5.44937 4.37553 5.30591 4.37553 5.09072V3.15401C4.37553 2.93882 4.51899 2.79536 4.73418 2.79536H12.1941C12.4093 2.79536 12.5527 2.93882 12.5527 3.15401V5.09072C12.5527 5.30591 12.4093 5.44937 12.1941 5.44937ZM5.09283 4.73207H11.8354V3.51266H5.09283V4.73207Z" fill="black" fill-opacity="0.6"/>
</svg>
