<svg width="15" height="14" viewBox="0 0 15 14" fill="none" xmlns="http://www.w3.org/2000/svg">
<path fill-rule="evenodd" clip-rule="evenodd" d="M8.02844 9.14363L6.31047 7.48368L6.33076 7.46384C7.50764 6.18085 8.34633 4.70608 8.84007 3.14533H10.8218V1.82267H6.08727V0.5H4.73455V1.82267H0V3.13872H7.55498C7.10182 4.41509 6.38487 5.62533 5.41091 6.68347C4.78189 6.00229 4.26109 5.25499 3.84851 4.468H2.49578C2.98953 5.54597 3.66589 6.56443 4.51135 7.48368L1.06865 10.8036L2.02909 11.7427L5.41091 8.436L7.5144 10.4927L8.02844 9.14363ZM11.8364 5.79067H10.4836L7.44 13.7267H8.79273L9.55025 11.7427H12.763L13.5273 13.7267H14.88L11.8364 5.79067ZM11.16 7.55643L10.0643 10.42H12.2557L11.16 7.55643Z" fill="black" fill-opacity="0.6"/>
</svg>
