<svg width="13" height="19" viewBox="0 0 13 19" fill="none" xmlns="http://www.w3.org/2000/svg">
<path d="M11.9565 9.8913C11.9565 12.9435 9.53043 15.3696 6.47826 15.3696M6.47826 15.3696C3.42609 15.3696 1 12.9435 1 9.8913M6.47826 15.3696V18.5M8.04348 18.5H4.91304M8.82609 4.41304H9.6087M8.82609 6.76087H9.6087M8.82609 9.1087H9.6087M3.34783 4.41304H4.13043M3.34783 6.76087H4.13043M3.34783 9.1087H4.13043M6.47826 13.0217C4.75652 13.0217 3.34783 11.613 3.34783 9.8913V3.63043C3.34783 1.9087 4.75652 0.5 6.47826 0.5C8.2 0.5 9.6087 1.9087 9.6087 3.63043V9.8913C9.6087 11.613 8.2 13.0217 6.47826 13.0217Z" stroke="black" stroke-opacity="0.6" stroke-miterlimit="10" stroke-linecap="round" stroke-linejoin="round"/>
</svg>
