<svg width="16" height="16" viewBox="0 0 16 16" fill="none" xmlns="http://www.w3.org/2000/svg">
<path fill-rule="evenodd" clip-rule="evenodd" d="M7.66667 0C7.85076 0 8 0.149238 8 0.333333V12.1953L10.7643 9.43096C10.8945 9.30079 11.1055 9.30079 11.2357 9.43096C11.3659 9.56114 11.3659 9.77219 11.2357 9.90237L7.90237 13.2357C7.77219 13.3659 7.56114 13.3659 7.43096 13.2357L4.09763 9.90237C3.96746 9.77219 3.96746 9.56114 4.09763 9.43096C4.22781 9.30079 4.43886 9.30079 4.56904 9.43096L7.33333 12.1953V0.333333C7.33333 0.149238 7.48257 0 7.66667 0ZM0.333333 11.3333C0.517428 11.3333 0.666667 11.4826 0.666667 11.6667V15C0.666667 15.1946 0.828727 15.3333 1 15.3333H14.3333C14.5046 15.3333 14.6667 15.1946 14.6667 15V11.6667C14.6667 11.4826 14.8159 11.3333 15 11.3333C15.1841 11.3333 15.3333 11.4826 15.3333 11.6667V15C15.3333 15.6054 14.8287 16 14.3333 16H1C0.504606 16 0 15.6054 0 15V11.6667C0 11.4826 0.149238 11.3333 0.333333 11.3333Z" fill="black" fill-opacity="0.87"/>
</svg>
