<svg width="12" height="16" viewBox="0 0 12 16" fill="none" xmlns="http://www.w3.org/2000/svg">
<path d="M7 4.25V0H0.75C0.334375 0 0 0.334375 0 0.75V15.25C0 15.6656 0.334375 16 0.75 16H11.25C11.6656 16 12 15.6656 12 15.25V5H7.75C7.3375 5 7 4.6625 7 4.25ZM5 12.625C5 12.9594 4.59688 13.125 4.35938 12.8906L3.25 11.75H2.375C2.16875 11.75 2 11.5813 2 11.375V9.625C2 9.41875 2.16875 9.25 2.375 9.25H3.25L4.35938 8.10938C4.59688 7.87187 5 8.04062 5 8.375V12.625ZM6.0375 11.1375C6.32188 10.8469 6.32188 10.3844 6.0375 10.0938C5.34687 9.38125 6.41875 8.3375 7.1125 9.04688C7.9625 9.91875 7.9625 11.3094 7.1125 12.1844C6.43125 12.8812 5.33437 11.8594 6.0375 11.1375ZM8.725 7.47813C10.425 9.225 10.425 12.0031 8.725 13.7531C8.04375 14.4531 6.94375 13.4313 7.65 12.7063C8.78125 11.5437 8.78438 9.69062 7.65 8.525C6.95937 7.8125 8.03438 6.76562 8.725 7.47813ZM12 3.80938V4H8V0H8.19063C8.39062 0 8.58125 0.078125 8.72188 0.21875L11.7812 3.28125C11.9219 3.42188 12 3.6125 12 3.80938Z" fill="#fff"/>
</svg>
