<svg width="70" height="23" viewBox="0 0 70 23" fill="none" xmlns="http://www.w3.org/2000/svg">
<path d="M0 22.1756H1.18551V0.0971201H0V22.1756ZM2.78755 22.1756H3.97307V0.0971201H2.78755V22.1756Z" fill="#EFEBE9"/>
<path d="M6.41768 22.1756H7.66728L16.6387 1.06832H18.3369L27.7249 22.1756H28.9744L19.0738 0H15.9018L6.41768 22.1756ZM12.922 13.5967H22.4061L17.7601 2.84884H17.2155L12.922 13.5967ZM14.524 12.5608L17.5038 4.85597L20.804 12.5608H14.524ZM9.36544 22.1756H10.6471L13.0822 16.1218H22.2459L24.7451 22.1756H26.0267L23.0469 15.0535H12.2812L9.36544 22.1756Z" fill="#EFEBE9"/>
<path d="M36.4622 22.2727H37.7439L47.1639 0.0971201H45.8823L37.1031 20.9778L28.1316 0.0971201H26.85L36.4622 22.2727ZM37.071 17.3196H37.1671L44.2802 0.0971201H42.9665L37.1031 14.7622L31.0153 0.0971201H29.7337L37.071 17.3196Z" fill="#EFEBE9"/>
<path d="M49.4618 22.1756H58.1449C65.1618 22.1756 70 17.7081 70 10.9098C70 4.40275 65.1939 0.0971201 58.1128 0.0971201H49.4618V22.1756ZM50.6473 21.0749V1.19781H57.5681C64.6171 1.19781 68.8145 5.1797 68.8145 10.9421C68.8145 17.2225 64.521 21.0749 57.6002 21.0749H50.6473ZM52.2494 19.7153H57.5361C63.5598 19.7153 67.1484 16.1866 67.1484 11.0716C67.1484 5.76242 63.752 2.68697 57.5361 2.68697H52.2494V19.7153ZM53.4349 18.6146V3.78766H57.6322C63.3996 3.78766 65.9308 6.66887 65.9308 11.0716C65.9308 15.8305 62.8549 18.6146 57.6322 18.6146H53.4349Z" fill="#EFEBE9"/>
</svg>
