<svg width="20" height="20" viewBox="0 0 20 20" fill="none" xmlns="http://www.w3.org/2000/svg">
<path d="M15.087 13.8043C14.8108 13.8043 14.587 14.0282 14.587 14.3043C14.587 14.5805 14.8108 14.8043 15.087 14.8043V13.8043ZM18.7652 6.86957L19.1813 6.5922L19.1787 6.58841L18.7652 6.86957ZM17.4348 4.91304L17.8482 4.63189C17.7552 4.49499 17.6003 4.41304 17.4348 4.41304V4.91304ZM2.56522 4.91304V4.41304C2.39966 4.41304 2.24485 4.49499 2.15175 4.63189L2.56522 4.91304ZM1.23478 6.86957L0.821302 6.5884L0.818757 6.59222L1.23478 6.86957ZM4.91304 14.8043C5.18919 14.8043 5.41304 14.5805 5.41304 14.3043C5.41304 14.0282 5.18919 13.8043 4.91304 13.8043V14.8043ZM4.91304 1V0.5C4.6369 0.5 4.41304 0.723858 4.41304 1H4.91304ZM15.087 1H15.587C15.587 0.723858 15.3631 0.5 15.087 0.5V1ZM15.087 4.91304V5.41304C15.3631 5.41304 15.587 5.18919 15.587 4.91304H15.087ZM4.91304 4.91304H4.41304C4.41304 5.18919 4.6369 5.41304 4.91304 5.41304V4.91304ZM4.91304 11.9565V11.4565C4.6369 11.4565 4.41304 11.6804 4.41304 11.9565H4.91304ZM15.087 11.9565H15.587C15.587 11.6804 15.3631 11.4565 15.087 11.4565V11.9565ZM15.087 19V19.5C15.3631 19.5 15.587 19.2761 15.587 19H15.087ZM4.91304 19H4.41304C4.41304 19.2761 4.6369 19.5 4.91304 19.5V19ZM7.26087 13.8043C6.98473 13.8043 6.76087 14.0282 6.76087 14.3043C6.76087 14.5805 6.98473 14.8043 7.26087 14.8043V13.8043ZM12.7391 14.8043C13.0153 14.8043 13.2391 14.5805 13.2391 14.3043C13.2391 14.0282 13.0153 13.8043 12.7391 13.8043V14.8043ZM7.26087 16.1522C6.98473 16.1522 6.76087 16.376 6.76087 16.6522C6.76087 16.9283 6.98473 17.1522 7.26087 17.1522V16.1522ZM11.1739 17.1522C11.4501 17.1522 11.6739 16.9283 11.6739 16.6522C11.6739 16.376 11.4501 16.1522 11.1739 16.1522V17.1522ZM3.34783 11.4565C3.07168 11.4565 2.84783 11.6804 2.84783 11.9565C2.84783 12.2327 3.07168 12.4565 3.34783 12.4565V11.4565ZM16.6522 12.4565C16.9283 12.4565 17.1522 12.2327 17.1522 11.9565C17.1522 11.6804 16.9283 11.4565 16.6522 11.4565V12.4565ZM15.087 14.8043H18.2174V13.8043H15.087V14.8043ZM18.2174 14.8043C18.5757 14.8043 18.8921 14.6302 19.109 14.4133C19.3259 14.1964 19.5 13.88 19.5 13.5217H18.5C18.5 13.5548 18.4784 13.6297 18.4019 13.7062C18.3253 13.7828 18.2504 13.8043 18.2174 13.8043V14.8043ZM19.5 13.5217V7.73043H18.5V13.5217H19.5ZM19.5 7.73043C19.5 7.34322 19.4047 6.92742 19.1812 6.59222L18.3492 7.14692C18.4388 7.28128 18.5 7.49156 18.5 7.73043H19.5ZM19.1787 6.58841L17.8482 4.63189L17.0213 5.1942L18.3518 7.15072L19.1787 6.58841ZM17.4348 4.41304H2.56522V5.41304H17.4348V4.41304ZM2.15175 4.63189L0.821319 6.58841L1.64825 7.15072L2.97868 5.1942L2.15175 4.63189ZM0.818757 6.59222C0.595289 6.92742 0.5 7.34322 0.5 7.73043H1.5C1.5 7.49156 1.56123 7.28128 1.65081 7.14692L0.818757 6.59222ZM0.5 7.73043V13.5217H1.5V7.73043H0.5ZM0.5 13.5217C0.5 13.8701 0.618318 14.1993 0.861664 14.4427C1.10501 14.686 1.4342 14.8043 1.78261 14.8043V13.8043C1.66145 13.8043 1.59934 13.7661 1.56877 13.7356C1.5382 13.705 1.5 13.6429 1.5 13.5217H0.5ZM1.78261 14.8043H4.91304V13.8043H1.78261V14.8043ZM4.91304 1.5H15.087V0.5H4.91304V1.5ZM14.587 1V4.91304H15.587V1H14.587ZM15.087 4.41304H4.91304V5.41304H15.087V4.41304ZM5.41304 4.91304V1H4.41304V4.91304H5.41304ZM4.91304 12.4565H15.087V11.4565H4.91304V12.4565ZM14.587 11.9565V19H15.587V11.9565H14.587ZM15.087 18.5H4.91304V19.5H15.087V18.5ZM5.41304 19V11.9565H4.41304V19H5.41304ZM7.26087 14.8043H12.7391V13.8043H7.26087V14.8043ZM7.26087 17.1522H11.1739V16.1522H7.26087V17.1522ZM14.1957 8.04348C14.1957 7.98345 14.2443 7.93478 14.3043 7.93478V8.93478C14.7966 8.93478 15.1957 8.53573 15.1957 8.04348H14.1957ZM14.3043 7.93478C14.3644 7.93478 14.413 7.98345 14.413 8.04348H13.413C13.413 8.53573 13.8121 8.93478 14.3043 8.93478V7.93478ZM14.413 8.04348C14.413 8.10351 14.3644 8.15217 14.3043 8.15217V7.15217C13.8121 7.15217 13.413 7.55122 13.413 8.04348H14.413ZM14.3043 8.15217C14.2443 8.15217 14.1957 8.10351 14.1957 8.04348H15.1957C15.1957 7.55122 14.7966 7.15217 14.3043 7.15217V8.15217ZM16.5435 8.04348C16.5435 7.98345 16.5921 7.93478 16.6522 7.93478V8.93478C17.1444 8.93478 17.5435 8.53573 17.5435 8.04348H16.5435ZM16.6522 7.93478C16.7122 7.93478 16.7609 7.98345 16.7609 8.04348H15.7609C15.7609 8.53573 16.1599 8.93478 16.6522 8.93478V7.93478ZM16.7609 8.04348C16.7609 8.10351 16.7122 8.15217 16.6522 8.15217V7.15217C16.1599 7.15217 15.7609 7.55122 15.7609 8.04348H16.7609ZM16.6522 8.15217C16.5921 8.15217 16.5435 8.10351 16.5435 8.04348H17.5435C17.5435 7.55122 17.1444 7.15217 16.6522 7.15217V8.15217ZM3.34783 12.4565H16.6522V11.4565H3.34783V12.4565Z" fill="black" fill-opacity="0.87"/>
</svg>
