<svg width="15" height="16" viewBox="0 0 15 16" fill="none" xmlns="http://www.w3.org/2000/svg">
<path d="M7.2 16C3.22991 16 0 12.8151 0 8.90034C0 8.50223 0.269159 8.23682 0.672897 8.23682C1.07664 8.23682 1.34579 8.50223 1.34579 8.90034C1.34579 12.0852 3.97009 14.673 7.2 14.673C10.4299 14.673 13.0542 12.0852 13.0542 8.90034C13.0542 5.71545 10.4299 3.12773 7.2 3.12773C6.79626 3.12773 6.5271 2.86232 6.5271 2.46421C6.5271 2.0661 6.79626 1.80069 7.2 1.80069C11.1701 1.80069 14.4 4.98558 14.4 8.90034C14.3327 12.8151 11.1028 16 7.2 16Z" fill="white"/>
<path d="M8.07477 5.25099C7.8729 5.25099 7.73832 5.18464 7.60374 5.05193L5.78692 3.06137C5.58505 2.79597 5.58505 2.39786 5.78692 2.1988L7.60374 0.208241C7.8729 -0.0571663 8.27664 -0.0571663 8.54579 0.14189C8.81495 0.407297 8.81495 0.805409 8.61308 1.07082L7.13271 2.53056L8.54579 4.123C8.81495 4.38841 8.74766 4.78652 8.47851 5.05193C8.41122 5.18464 8.27664 5.25099 8.07477 5.25099Z" fill="white"/>
</svg>
