<svg width="29" height="28" viewBox="0 0 29 28" fill="none" xmlns="http://www.w3.org/2000/svg">
<path fill-rule="evenodd" clip-rule="evenodd" d="M12.2038 0.568768C12.2666 0.308371 12.4988 0.125 12.7656 0.125H16.2344C16.5012 0.125 16.7334 0.308371 16.7962 0.568768L17.6439 4.07986C18.2393 4.2782 18.7685 4.53025 19.2303 4.78915L22.2889 2.88279C22.517 2.74058 22.8127 2.77486 23.0025 2.96554L25.4307 5.40382C25.6206 5.5945 25.6547 5.89137 25.5131 6.12049L23.6242 9.17633C23.958 9.71975 24.2303 10.2796 24.4364 10.901L27.9331 11.7522C28.1924 11.8153 28.375 12.0485 28.375 12.3164V15.7997C28.375 16.0676 28.1924 16.3008 27.9331 16.3639L24.4278 17.2172C24.2554 17.7264 24.054 18.2693 23.7367 18.8186L25.6287 21.8795C25.7703 22.1086 25.7362 22.4055 25.5463 22.5962L23.1182 25.0345C22.9283 25.2251 22.6327 25.2594 22.4045 25.1172L19.3256 23.1982C18.8212 23.4499 18.2957 23.7036 17.7632 23.9047L16.9118 27.4312C16.849 27.6916 16.6168 27.875 16.35 27.875H12.8813C12.6144 27.875 12.3823 27.6916 12.3194 27.4312L11.4847 23.9738C10.8001 23.8362 10.2406 23.5868 9.77033 23.3266L6.71113 25.2333C6.48297 25.3755 6.18734 25.3412 5.99745 25.1506L3.56933 22.7123C3.37945 22.5216 3.34531 22.2247 3.48693 21.9956L5.37575 18.9398C5.04196 18.3964 4.76971 17.8365 4.56356 17.2151L1.06692 16.3639C0.807606 16.3008 0.625 16.0676 0.625 15.7997V12.3164C0.625 12.0485 0.807606 11.8153 1.06692 11.7522L4.56339 10.901C4.76163 10.3009 5.01378 9.76773 5.27262 9.30274L3.36676 6.11302C3.23027 5.88459 3.26612 5.59219 3.4537 5.40382L5.88183 2.96554C6.07171 2.77486 6.36735 2.74058 6.59551 2.88279L9.67452 4.8019C10.1915 4.5447 10.7417 4.28409 11.3562 4.07982L12.2038 0.568768ZM13.2203 1.28609L12.4025 4.67391C12.3535 4.87699 12.1995 5.03794 11.9994 5.09534C11.2492 5.31058 10.6013 5.63431 9.9023 5.98526C9.72273 6.07542 9.50944 6.06557 9.33887 5.95926L6.37525 4.11208L4.59047 5.90432L6.43949 8.99891C6.54934 9.18276 6.54934 9.41243 6.43949 9.59628C6.10985 10.148 5.78796 10.7973 5.57463 11.547C5.51747 11.748 5.35718 11.9025 5.15496 11.9518L1.78125 12.773V15.3431L5.15496 16.1644C5.35718 16.2136 5.51747 16.3682 5.57463 16.5691C5.78651 17.3138 6.10457 17.9561 6.5404 18.6126C6.66608 18.8019 6.67006 19.0475 6.55057 19.2408L4.71109 22.2168L6.49088 24.004L9.45449 22.1569C9.63856 22.0421 9.87105 22.0404 10.0568 22.1523C10.6021 22.4809 11.2161 22.7849 12.028 22.8868C12.2664 22.9167 12.4615 23.0916 12.5181 23.3261L13.336 26.7139H15.8953L16.7132 23.3261C16.7601 23.1318 16.9033 22.9753 17.0922 22.9121C17.7399 22.6953 18.3961 22.367 19.0977 22.0147C19.2773 21.9246 19.4906 21.9344 19.6611 22.0407L22.6247 23.8879L24.4045 22.1007L22.5651 19.1247C22.4456 18.9314 22.4495 18.6858 22.5752 18.4965C22.9891 17.873 23.1997 17.2471 23.4328 16.545C23.4958 16.3553 23.6515 16.2115 23.845 16.1644L27.2188 15.3431V12.773L23.845 11.9518C23.6428 11.9025 23.4825 11.748 23.4254 11.547C23.2135 10.8023 22.8954 10.16 22.4596 9.50351C22.3339 9.31421 22.3299 9.06863 22.4494 8.87533L24.2889 5.89931L22.5091 4.11208L19.5455 5.95926C19.3614 6.07398 19.129 6.07574 18.9432 5.96382C18.3938 5.6328 17.7472 5.30957 17.0006 5.09534C16.8005 5.03794 16.6465 4.87699 16.5975 4.67391L15.7797 1.28609H13.2203ZM14.5 9.4137C11.9457 9.4137 9.875 11.4931 9.875 14.0581C9.875 16.6231 11.9457 18.7024 14.5 18.7024C17.0543 18.7024 19.125 16.6231 19.125 14.0581C19.125 11.4931 17.0543 9.4137 14.5 9.4137ZM8.71875 14.0581C8.71875 10.8518 11.3071 8.25261 14.5 8.25261C17.6929 8.25261 20.2812 10.8518 20.2812 14.0581C20.2812 17.2643 17.6929 19.8635 14.5 19.8635C11.3071 19.8635 8.71875 17.2643 8.71875 14.0581Z" fill="black" fill-opacity="0.6"/>
</svg>
