<svg width="23" height="15" viewBox="0 0 23 15" fill="none" xmlns="http://www.w3.org/2000/svg">
<path d="M10.0713 0V11.5372H8.03766V1.61648H4.43847L4.22865 6.07765C4.14795 7.47227 3.9731 8.5552 3.7041 9.32647C3.44048 10.0924 3.05582 10.6524 2.5501 11.0063C2.04438 11.3603 1.36651 11.5372 0.516476 11.5372H0V9.93661L0.322798 9.91284C0.790854 9.87057 1.15131 9.70946 1.40417 9.42948C1.66241 9.1495 1.85609 8.72689 1.98521 8.16165C2.1197 7.59113 2.21385 6.75383 2.26765 5.64976L2.49361 0H10.0713ZM12 9.91284V12.0127C12 13.0692 11.6987 13.8563 11.0962 14.374C10.6066 14.7913 9.96099 15 9.15938 15C8.78278 15 8.44385 14.9551 8.14257 14.8653L8.25555 13.2964C8.44923 13.3597 8.71015 13.3914 9.03833 13.3914C9.70545 13.3914 10.039 12.9213 10.039 11.981V9.91284H12Z" fill="white"/>
<path d="M19.5731 6.43868H23V8.32359H19.5731V12H17.4449V8.32359H14V6.43868H17.4449V3H19.5731V6.43868Z" fill="white"/>
</svg>
