<svg width="20" height="20" viewBox="0 0 20 20" fill="none" xmlns="http://www.w3.org/2000/svg">
<path d="M14.3043 10L14.5817 10.416C14.7208 10.3233 14.8043 10.1672 14.8043 10C14.8043 9.83282 14.7208 9.67671 14.5817 9.58397L14.3043 10ZM7.26087 5.30435L7.53822 4.88832C7.38479 4.78604 7.18752 4.7765 7.02494 4.86351C6.86236 4.95052 6.76087 5.11995 6.76087 5.30435H7.26087ZM7.26087 14.6957H6.76087C6.76087 14.88 6.86236 15.0495 7.02494 15.1365C7.18752 15.2235 7.38479 15.214 7.53822 15.1117L7.26087 14.6957ZM18.5 10C18.5 14.6944 14.6944 18.5 10 18.5V19.5C15.2467 19.5 19.5 15.2467 19.5 10H18.5ZM10 18.5C5.30558 18.5 1.5 14.6944 1.5 10H0.5C0.5 15.2467 4.75329 19.5 10 19.5V18.5ZM1.5 10C1.5 5.30558 5.30558 1.5 10 1.5V0.5C4.75329 0.5 0.5 4.75329 0.5 10H1.5ZM10 1.5C14.6944 1.5 18.5 5.30558 18.5 10H19.5C19.5 4.75329 15.2467 0.5 10 0.5V1.5ZM14.5817 9.58397L7.53822 4.88832L6.98352 5.72037L14.027 10.416L14.5817 9.58397ZM6.76087 5.30435V14.6957H7.76087V5.30435H6.76087ZM7.53822 15.1117L14.5817 10.416L14.027 9.58397L6.98352 14.2796L7.53822 15.1117Z" fill="black" fill-opacity="0.87"/>
</svg>
