<svg width="13" height="16" viewBox="0 0 13 16" fill="none" xmlns="http://www.w3.org/2000/svg">
<path d="M12.2353 3.81066V4H8.15686V0H8.34992C8.55272 0 8.74725 0.0790312 8.89066 0.219656L12.0113 3.28031C12.1547 3.42098 12.2353 3.61174 12.2353 3.81066ZM7.13725 4.25V0H0.764706C0.342365 0 0 0.335781 0 0.75V15.25C0 15.6642 0.342365 16 0.764706 16H11.4706C11.8929 16 12.2353 15.6642 12.2353 15.25V5H7.90196C7.48137 5 7.13725 4.6625 7.13725 4.25ZM10.1961 8.7505V12.2493C10.1961 12.9195 9.36946 13.2493 8.89063 12.7797L7.13725 11.0607V12.25C7.13725 12.6642 6.79489 13 6.37255 13H2.80392C2.38158 13 2.03922 12.6642 2.03922 12.25V8.75C2.03922 8.33578 2.38158 8 2.80392 8H6.37255C6.79489 8 7.13725 8.33578 7.13725 8.75V9.93934L8.89063 8.22019C9.36892 7.75112 10.1961 8.07984 10.1961 8.7505Z" fill="#56CCF2"/>
</svg>
