<svg width="14" height="16" viewBox="0 0 14 16" fill="none" xmlns="http://www.w3.org/2000/svg">
<path d="M11.1599 5.21774C11.0389 5.21774 10.9179 5.15726 10.797 5.09677C10.555 4.91532 10.4945 4.49194 10.676 4.25L11.8252 2.67742C12.0066 2.43548 12.43 2.375 12.672 2.55645C12.9139 2.7379 12.9744 3.16129 12.7929 3.40323L11.6437 4.91532C11.5228 5.09677 11.3413 5.21774 11.1599 5.21774Z" fill="white"/>
<path d="M6.86551 15.5C3.29696 15.5 0.333252 12.5968 0.333252 8.96774C0.333252 5.33871 3.29696 2.43548 6.86551 2.43548C10.4945 2.43548 13.3978 5.39919 13.3978 8.96774C13.4583 12.5968 10.4945 15.5 6.86551 15.5ZM6.86551 3.64516C3.96228 3.64516 1.54293 6.00403 1.54293 8.96774C1.54293 11.9315 3.96228 14.2903 6.86551 14.2903C9.82922 14.2903 12.1881 11.871 12.1881 8.96774C12.1881 6.06452 9.82922 3.64516 6.86551 3.64516Z" fill="white"/>
<path d="M6.86551 9.57258C6.50261 9.57258 6.26067 9.33065 6.26067 8.96774V4.91532C6.26067 4.55242 6.50261 4.31048 6.86551 4.31048C7.22841 4.31048 7.47035 4.55242 7.47035 4.91532V8.96774C7.47035 9.27016 7.22841 9.57258 6.86551 9.57258Z" fill="white"/>
<path d="M8.55906 1.70968H5.23245C4.86954 1.70968 4.62761 1.46774 4.62761 1.10484C4.62761 0.741935 4.86954 0.5 5.23245 0.5H8.49857C8.86148 0.5 9.10341 0.741935 9.10341 1.10484C9.1639 1.46774 8.86148 1.70968 8.55906 1.70968Z" fill="white"/>
<path d="M6.86551 3.64516C6.50261 3.64516 6.26067 3.40323 6.26067 3.04032V1.58871C6.26067 1.22581 6.50261 0.983871 6.86551 0.983871C7.22841 0.983871 7.47035 1.22581 7.47035 1.58871V2.97984C7.47035 3.34274 7.22841 3.64516 6.86551 3.64516Z" fill="white"/>
</svg>
