<svg width="16" height="17" viewBox="0 0 16 17" fill="none" xmlns="http://www.w3.org/2000/svg">
<path d="M5.43524 6.31847C5.43524 5.97877 5.57113 5.70701 5.77495 5.3673C5.97877 5.0276 6.25053 4.75584 6.65817 4.55202C7.06582 4.3482 7.5414 4.21231 8.01698 4.21231C8.49257 4.21231 8.96815 4.28025 9.30786 4.48408C9.7155 4.6879 9.98726 4.89172 10.1911 5.23142C10.3949 5.57113 10.4628 5.91083 10.4628 6.25053C10.4628 6.52229 10.3949 6.79406 10.259 6.99788C10.1231 7.2017 9.98726 7.40552 9.85138 7.5414C9.7155 7.67728 9.3758 7.94904 8.96815 8.35669C8.83227 8.49257 8.76433 8.56051 8.69639 8.62845C8.62845 8.69639 8.56051 8.76433 8.56051 8.83227C8.56051 8.90021 8.49257 8.96815 8.49257 9.03609C8.49257 9.10403 8.42463 9.23991 8.42463 9.3758C8.35669 9.7155 8.15287 9.91932 7.81316 9.91932C7.60934 9.91932 7.47346 9.85138 7.33758 9.7155C7.2017 9.57962 7.13376 9.44374 7.13376 9.17197C7.13376 8.90021 7.2017 8.62845 7.26964 8.42463C7.33758 8.22081 7.47346 8.01698 7.60934 7.8811C7.74522 7.74522 7.94904 7.5414 8.22081 7.33758C8.42463 7.13376 8.56051 6.99788 8.69639 6.92994C8.76433 6.862 8.90021 6.72611 8.96815 6.59023C9.03609 6.45435 9.03609 6.31847 9.03609 6.18259C9.03609 5.91083 8.96815 5.70701 8.76433 5.50318C8.56051 5.29936 8.28875 5.23142 8.01698 5.23142C7.67728 5.23142 7.40552 5.29936 7.2017 5.50318C6.99788 5.70701 6.862 5.97877 6.72611 6.31847C6.59023 6.72611 6.38641 6.862 6.04671 6.862C5.84289 6.862 5.70701 6.79406 5.57113 6.65817C5.50318 6.59023 5.43524 6.45435 5.43524 6.31847ZM7.8811 11.8896C7.67728 11.8896 7.47346 11.8217 7.33758 11.6858C7.2017 11.5499 7.13376 11.3461 7.13376 11.1423C7.13376 10.9384 7.2017 10.7346 7.33758 10.5987C7.47346 10.4628 7.67728 10.3949 7.8811 10.3949C8.08493 10.3949 8.28875 10.4628 8.42463 10.5987C8.56051 10.7346 8.62845 10.9384 8.62845 11.1423C8.62845 11.3461 8.56051 11.5499 8.42463 11.6858C8.28875 11.8217 8.08493 11.8896 7.8811 11.8896Z" fill="white"/>
<path d="M8.01698 16.034C5.91083 16.034 3.87261 15.2187 2.37792 13.724C0.815287 12.1614 0 10.1231 0 8.01698C0 5.91083 0.815287 3.87261 2.37792 2.37792C3.87261 0.815287 5.84289 0 8.01698 0C10.1231 0 12.1614 0.815287 13.6561 2.30998C16.7813 5.43524 16.7813 10.5308 13.6561 13.6561C12.1614 15.1507 10.1231 16.034 8.01698 16.034ZM8.01698 1.35881C6.25053 1.35881 4.55202 2.03822 3.32909 3.32909C2.03822 4.55202 1.35881 6.25053 1.35881 8.01698C1.35881 9.78344 2.03822 11.482 3.32909 12.7049C4.55202 13.9278 6.25053 14.6752 8.01698 14.6752C9.78344 14.6752 11.482 13.9958 12.7049 12.7049C15.2866 10.1231 15.2866 5.91083 12.7049 3.32909C11.414 2.03822 9.78344 1.35881 8.01698 1.35881Z" fill="white"/>
</svg>
