<svg width="18" height="18" viewBox="0 0 18 18" fill="none" xmlns="http://www.w3.org/2000/svg">
<path d="M9 6.33051C8.77119 6.33051 8.61864 6.25424 8.4661 6.10169C8.31356 5.94915 8.23729 5.79661 8.23729 5.5678C8.23729 5.33898 8.31356 5.18644 8.4661 5.0339C8.61864 4.88136 8.77119 4.80508 9 4.80508C9.22881 4.80508 9.38136 4.88136 9.5339 5.0339C9.68644 5.18644 9.76271 5.33898 9.76271 5.5678C9.76271 5.79661 9.68644 6.02542 9.5339 6.10169C9.38136 6.25424 9.15254 6.33051 9 6.33051ZM9.76271 7.9322V12.4322C9.76271 12.7373 9.68644 12.9661 9.5339 13.1186C9.38136 13.2712 9.22881 13.3475 9 13.3475C8.77119 13.3475 8.61864 13.2712 8.4661 13.1186C8.31356 12.9661 8.23729 12.7373 8.23729 12.4322V8.00847C8.23729 7.70339 8.31356 7.47458 8.4661 7.32203C8.61864 7.16949 8.77119 7.09322 9 7.09322C9.22881 7.09322 9.38136 7.16949 9.5339 7.32203C9.68644 7.3983 9.76271 7.62712 9.76271 7.9322Z" fill="black" fill-opacity="0.38"/>
<path d="M9 18C6.63559 18 4.34746 17.0847 2.66949 15.4068C0.915254 13.6525 0 11.3644 0 9C0 6.63559 0.915254 4.34746 2.66949 2.66949C4.34746 0.915254 6.55932 0 9 0C11.3644 0 13.6525 0.915254 15.3305 2.59322C18.839 6.10169 18.839 11.822 15.3305 15.3305C13.6525 17.0085 11.3644 18 9 18ZM9 1.52542C7.01695 1.52542 5.11017 2.28814 3.73729 3.73729C2.28814 5.11017 1.52542 7.01695 1.52542 9C1.52542 10.9831 2.28814 12.8898 3.73729 14.2627C5.11017 15.6356 7.01695 16.4746 9 16.4746C10.9831 16.4746 12.8898 15.7119 14.2627 14.2627C17.161 11.3644 17.161 6.63559 14.2627 3.73729C12.8136 2.28814 10.9831 1.52542 9 1.52542Z" fill="black" fill-opacity="0.38"/>
</svg>
