<svg width="79" height="25" viewBox="0 0 79 25" fill="none" xmlns="http://www.w3.org/2000/svg">
<path d="M0 24.66H1.332V0.108001H0V24.66ZM3.132 24.66H4.464V0.108001H3.132V24.66Z" fill="black" fill-opacity="0.6"/>
<path d="M7.21069 24.66H8.61469L18.6947 1.188H20.6027L31.1507 24.66H32.5547L21.4307 0H17.8667L7.21069 24.66ZM14.5187 15.12H25.1747L19.9547 3.168H19.3427L14.5187 15.12ZM16.3187 13.968L19.6667 5.4L23.3747 13.968H16.3187ZM10.5227 24.66H11.9627L14.6987 17.928H24.9947L27.8027 24.66H29.2427L25.8947 16.74H13.7987L10.5227 24.66Z" fill="black" fill-opacity="0.6"/>
<path d="M40.9677 24.768H42.4077L52.9917 0.108001H51.5517L41.6877 23.328L31.6077 0.108001H30.1677L40.9677 24.768ZM41.6517 19.26H41.7597L49.7517 0.108001H48.2757L41.6877 16.416L34.8477 0.108001H33.4077L41.6517 19.26Z" fill="black" fill-opacity="0.6"/>
<path d="M55.5736 24.66H65.3296C73.2136 24.66 78.6496 19.692 78.6496 12.132C78.6496 4.896 73.2496 0.108001 65.2936 0.108001H55.5736V24.66ZM56.9056 23.436V1.332H64.6816C72.6016 1.332 77.3176 5.76 77.3176 12.168C77.3176 19.152 72.4936 23.436 64.7176 23.436H56.9056ZM58.7056 21.924H64.6456C71.4136 21.924 75.4456 18 75.4456 12.312C75.4456 6.408 71.6296 2.988 64.6456 2.988H58.7056V21.924ZM60.0376 20.7V4.212H64.7536C71.2336 4.212 74.0776 7.416 74.0776 12.312C74.0776 17.604 70.6216 20.7 64.7536 20.7H60.0376Z" fill="black" fill-opacity="0.6"/>
</svg>
