<svg width="15" height="16" viewBox="0 0 15 16" fill="none" xmlns="http://www.w3.org/2000/svg">
<path d="M7.8 16C11.7701 16 15 12.8151 15 8.90034C15 8.50223 14.7308 8.23682 14.3271 8.23682C13.9234 8.23682 13.6542 8.50223 13.6542 8.90034C13.6542 12.0852 11.0299 14.673 7.8 14.673C4.57009 14.673 1.94579 12.0852 1.94579 8.90034C1.94579 5.71545 4.57009 3.12773 7.8 3.12773C8.20374 3.12773 8.4729 2.86232 8.4729 2.46421C8.4729 2.0661 8.20374 1.80069 7.8 1.80069C3.82991 1.80069 0.599999 4.98558 0.599999 8.90034C0.66729 12.8151 3.8972 16 7.8 16Z" fill="white"/>
<path d="M6.92523 5.25099C7.1271 5.25099 7.26168 5.18464 7.39626 5.05193L9.21308 3.06137C9.41495 2.79597 9.41495 2.39786 9.21308 2.1988L7.39626 0.208241C7.1271 -0.0571663 6.72336 -0.0571663 6.45421 0.14189C6.18505 0.407297 6.18505 0.805409 6.38692 1.07082L7.86729 2.53056L6.45421 4.123C6.18505 4.38841 6.25234 4.78652 6.52149 5.05193C6.58878 5.18464 6.72336 5.25099 6.92523 5.25099Z" fill="white"/>
</svg>
