<svg width="30" height="26" viewBox="0 0 30 26" fill="none" xmlns="http://www.w3.org/2000/svg">
<path fill-rule="evenodd" clip-rule="evenodd" d="M7.57407 2.09744C7.77369 1.09937 8.60386 0.5 9.55064 0.5H20.3333C21.2793 0.5 22.109 1.09847 22.3094 2.09518C22.3095 2.09593 22.3097 2.09668 22.3098 2.09744L23.1214 6.03947C23.1424 6.14441 23.1859 6.19811 23.2249 6.22879C23.267 6.26183 23.3419 6.2971 23.4637 6.2971H26.0144C27.75 6.2971 29.1666 7.71368 29.1666 9.44928V22.2029C29.1666 23.9385 27.75 25.3551 26.0144 25.3551H3.98543C2.24983 25.3551 0.833252 23.9385 0.833252 22.2029V9.44928C0.833252 7.71368 2.24983 6.2971 3.98543 6.2971H6.53615C6.65795 6.2971 6.73288 6.26183 6.77492 6.22879C6.81308 6.19881 6.85545 6.14686 6.87695 6.04659L7.57407 2.09744ZM9.20985 2.41718L8.51293 6.36637C8.31332 7.36444 7.48294 7.96377 6.53615 7.96377H3.98543C3.1703 7.96377 2.49992 8.63415 2.49992 9.44928V22.2029C2.49992 23.018 3.1703 23.6884 3.98543 23.6884H26.0144C26.8295 23.6884 27.4999 23.018 27.4999 22.2029V9.44928C27.4999 8.63415 26.8295 7.96377 26.0144 7.96377H23.4637C22.5177 7.96377 21.6882 7.36544 21.4876 6.36893C21.4875 6.36807 21.4873 6.3672 21.4871 6.36633L20.6755 2.4243C20.6545 2.31935 20.6111 2.26566 20.572 2.23498C20.53 2.20194 20.4551 2.16667 20.3333 2.16667H9.55064C9.42885 2.16667 9.35392 2.20194 9.31187 2.23498C9.27372 2.26496 9.23135 2.31691 9.20985 2.41718ZM14.9999 9.12319C11.9383 9.12319 9.45644 11.6051 9.45644 14.6667C9.45644 17.7282 11.9383 20.2101 14.9999 20.2101C18.0615 20.2101 20.5434 17.7282 20.5434 14.6667C20.5434 11.6051 18.0615 9.12319 14.9999 9.12319ZM7.78977 14.6667C7.78977 10.6846 11.0179 7.45652 14.9999 7.45652C18.982 7.45652 22.2101 10.6846 22.2101 14.6667C22.2101 18.6487 18.982 21.8768 14.9999 21.8768C11.0179 21.8768 7.78977 18.6487 7.78977 14.6667Z" fill="black" fill-opacity="0.87"/>
</svg>
