<svg width="19" height="20" viewBox="0 0 19 20" fill="none" xmlns="http://www.w3.org/2000/svg">
<path d="M4.91304 16.6522V1.78261C4.91304 1.31304 5.22609 1 5.69565 1H17.4348C17.9043 1 18.2174 1.31304 18.2174 1.78261V16.6522C18.2174 17.9826 17.2 19 15.8696 19H4.91304M7.26087 19H3.34783M8.04348 4.13043H15.087M8.04348 7.26087H15.087M8.04348 10.3913H15.087M2.95652 19C1.86087 19 1 18.1391 1 17.0435V9.6087C1 9.13913 1.31304 8.82609 1.78261 8.82609H4.91304V17.0435C4.91304 18.1391 4.05217 19 2.95652 19Z" stroke="white" stroke-miterlimit="10" stroke-linecap="round" stroke-linejoin="round"/>
</svg>
