<svg width="18" height="18" viewBox="0 0 18 18" fill="none" xmlns="http://www.w3.org/2000/svg">
<path fill-rule="evenodd" clip-rule="evenodd" d="M7.08074 0.745341C3.5818 0.745341 0.745342 3.5818 0.745342 7.08074C0.745342 10.5797 3.5818 13.4161 7.08074 13.4161C10.5797 13.4161 13.4161 10.5797 13.4161 7.08074C13.4161 3.5818 10.5797 0.745341 7.08074 0.745341ZM0 7.08074C0 3.17016 3.17016 0 7.08074 0C10.9913 0 14.1615 3.17016 14.1615 7.08074C14.1615 8.90195 13.4739 10.5626 12.3442 11.8172L12.6276 12.1005C13.1981 11.7541 13.9238 11.8316 14.425 12.3327L17.5554 15.4632C18.1482 16.0559 18.1482 16.9627 17.5554 17.5554C16.9816 18.1293 15.989 18.1706 15.4522 17.5445L12.3328 14.425C11.8316 13.9238 11.7542 13.1981 12.1005 12.6276L11.8172 12.3442C10.5626 13.4739 8.90195 14.1615 7.08074 14.1615C3.17016 14.1615 0 10.9913 0 7.08074ZM13.898 12.8598C13.5963 12.5581 13.1615 12.5581 12.8598 12.8598C12.5581 13.1615 12.5581 13.5963 12.8598 13.898L15.9902 17.0284C15.9982 17.0364 16.0058 17.0447 16.013 17.0533C16.2244 17.3071 16.7121 17.3447 17.0284 17.0284C17.3301 16.7267 17.3301 16.2919 17.0284 15.9902L13.898 12.8598Z" fill="black" fill-opacity="0.6"/>
</svg>
