<svg width="16" height="16" viewBox="0 0 16 16" fill="none" xmlns="http://www.w3.org/2000/svg">
<path d="M2.51613 10.5161C1.16129 10.5161 0 9.41936 0 8C0 6.58065 1.09677 5.48387 2.51613 5.48387C3.87097 5.48387 5.03226 6.58065 5.03226 8C5.03226 9.41936 3.87097 10.5161 2.51613 10.5161ZM2.51613 6.77419C1.87097 6.77419 1.29032 7.29032 1.29032 8C1.29032 8.70968 1.80645 9.22581 2.51613 9.22581C3.16129 9.22581 3.74194 8.70968 3.74194 8C3.74194 7.29032 3.16129 6.77419 2.51613 6.77419Z" fill="black" fill-opacity="0.6"/>
<path d="M12.7742 5.03226C11.4194 5.03226 10.2581 3.93548 10.2581 2.51613C10.2581 1.09677 11.4194 0 12.7742 0C14.129 0 15.2903 1.09677 15.2903 2.51613C15.2903 3.93548 14.129 5.03226 12.7742 5.03226ZM12.7742 1.29032C12.129 1.29032 11.5484 1.80645 11.5484 2.51613C11.5484 3.22581 12.0645 3.74194 12.7742 3.74194C13.4194 3.74194 14 3.22581 14 2.51613C14 1.80645 13.4194 1.29032 12.7742 1.29032Z" fill="black" fill-opacity="0.6"/>
<path d="M12.7742 16C11.4194 16 10.2581 14.9032 10.2581 13.4839C10.2581 12.0645 11.3548 10.9677 12.7742 10.9677C14.1935 10.9677 15.2903 12.0645 15.2903 13.4839C15.2903 14.9032 14.129 16 12.7742 16ZM12.7742 12.3226C12.129 12.3226 11.5484 12.8387 11.5484 13.5484C11.5484 14.2581 12.0645 14.7742 12.7742 14.7742C13.4194 14.7742 14 14.2581 14 13.5484C14 12.8387 13.4194 12.3226 12.7742 12.3226Z" fill="black" fill-opacity="0.6"/>
<path d="M10.8387 13.1613C10.7097 13.1613 10.6452 13.1613 10.5161 13.0968L3.93548 9.29032C3.6129 9.09677 3.54839 8.70968 3.67742 8.3871C3.87097 8.06452 4.25807 8 4.58065 8.12903L11.1613 11.9355C11.4839 12.129 11.5484 12.5161 11.4194 12.8387C11.2903 13.0968 11.0968 13.1613 10.8387 13.1613Z" fill="black" fill-opacity="0.6"/>
<path d="M4.25806 7.93548C4.06452 7.93548 3.80645 7.80645 3.67742 7.6129C3.48387 7.29032 3.6129 6.90323 3.93548 6.70968L10.5161 2.90323C10.8387 2.70968 11.2258 2.83871 11.4194 3.16129C11.6129 3.48387 11.4839 3.87097 11.1613 4.06452L4.58065 7.87097C4.51613 7.87097 4.3871 7.93548 4.25806 7.93548Z" fill="black" fill-opacity="0.6"/>
</svg>
