<svg width="16" height="16" viewBox="0 0 16 16" fill="none" xmlns="http://www.w3.org/2000/svg">
<path fill-rule="evenodd" clip-rule="evenodd" d="M8.03835 0.169065C8.17448 0.108562 8.31659 0.083374 8.46476 0.083374H14.8364C15.1302 0.083374 15.4075 0.183127 15.6123 0.387935C15.8171 0.592743 15.9168 0.869956 15.9168 1.16376V7.53544C15.9168 7.68362 15.8916 7.82572 15.8311 7.96185C15.7714 8.09618 15.6866 8.2037 15.5957 8.29467L8.29479 15.5956C7.86659 16.0238 7.20454 16.0238 6.77633 15.5956L0.40465 9.22387C-0.0235552 8.79567 -0.0235552 8.13362 0.40465 7.70541L7.70553 0.404528C7.7965 0.313559 7.90403 0.228763 8.03835 0.169065ZM8.3768 0.930574C8.36178 0.937248 8.33657 0.952009 8.29479 0.993783L0.993906 8.29467C0.891137 8.39744 0.891137 8.53185 0.993906 8.63462L7.36559 15.0063C7.46835 15.1091 7.60277 15.1091 7.70553 15.0063L15.0064 7.70541C15.0482 7.66364 15.063 7.63842 15.0696 7.6234C15.0755 7.6102 15.0835 7.58638 15.0835 7.53544V1.16376C15.0835 1.05933 15.0505 1.00468 15.023 0.977191C14.9955 0.949698 14.9409 0.916707 14.8364 0.916707H8.46476C8.41383 0.916707 8.39 0.924705 8.3768 0.930574ZM12.1816 2.90786C11.6786 2.90786 11.2708 3.31562 11.2708 3.81862C11.2708 4.32163 11.6786 4.72939 12.1816 4.72939C12.6846 4.72939 13.0923 4.32163 13.0923 3.81862C13.0923 3.31562 12.6846 2.90786 12.1816 2.90786ZM10.4375 3.81862C10.4375 2.85538 11.2183 2.07452 12.1816 2.07452C13.1448 2.07452 13.9257 2.85538 13.9257 3.81862C13.9257 4.78186 13.1448 5.56273 12.1816 5.56273C11.2183 5.56273 10.4375 4.78186 10.4375 3.81862Z" fill="black" fill-opacity="0.87"/>
</svg>
