<svg width="34" height="26" viewBox="0 0 34 26" fill="none" xmlns="http://www.w3.org/2000/svg">
<path fill-rule="evenodd" clip-rule="evenodd" d="M1.9682 2.30121C1.90458 2.36484 1.83366 2.48647 1.83366 2.71014V23.3623C1.83366 23.586 1.90458 23.7076 1.9682 23.7713C2.03183 23.8349 2.15347 23.9058 2.37714 23.9058H31.2902C31.5138 23.9058 31.6355 23.8349 31.6991 23.7713C31.7627 23.7076 31.8337 23.586 31.8337 23.3623V2.71014C31.8337 2.48647 31.7627 2.36484 31.6991 2.30121C31.6355 2.23759 31.5138 2.16667 31.2902 2.16667H2.37714C2.15347 2.16667 2.03183 2.23759 1.9682 2.30121ZM0.789693 1.1227C1.20795 0.704443 1.77472 0.5 2.37714 0.5H31.2902C31.8926 0.5 32.4594 0.704443 32.8776 1.1227C33.2959 1.54096 33.5003 2.10773 33.5003 2.71014V23.3623C33.5003 23.9647 33.2959 24.5315 32.8776 24.9498C32.4594 25.368 31.8926 25.5725 31.2902 25.5725H2.37714C1.77472 25.5725 1.20795 25.368 0.789693 24.9498C0.371435 24.5315 0.166992 23.9647 0.166992 23.3623V2.71014C0.166992 2.10773 0.371435 1.54096 0.789693 1.1227ZM4.29743 5.46377C4.29743 5.00353 4.67052 4.63044 5.13076 4.63044H6.50757C6.96781 4.63044 7.34091 5.00353 7.34091 5.46377V6.84058C7.34091 7.30082 6.96781 7.67391 6.50757 7.67391H5.13076C4.67052 7.67391 4.29743 7.30082 4.29743 6.84058V5.46377ZM26.3264 5.46377C26.3264 5.00353 26.6995 4.63044 27.1597 4.63044H28.5366C28.9968 4.63044 29.3699 5.00353 29.3699 5.46377V6.84058C29.3699 7.30082 28.9968 7.67391 28.5366 7.67391H27.1597C26.6995 7.67391 26.3264 7.30082 26.3264 6.84058V5.46377ZM12.9984 6.10585C13.2694 5.96084 13.5982 5.97673 13.8539 6.14721L22.1147 11.6545C22.3335 11.8003 22.4706 12.0408 22.4846 12.3034C22.4987 12.5659 22.388 12.8197 22.186 12.988L13.9251 19.8721C13.6767 20.0791 13.331 20.1237 13.0382 19.9865C12.7453 19.8494 12.5583 19.5552 12.5583 19.2319V6.84058C12.5583 6.53325 12.7275 6.25087 12.9984 6.10585ZM14.225 8.39768V17.4527L20.2616 12.4221L14.225 8.39768ZM4.29743 12.3478C4.29743 11.8876 4.67052 11.5145 5.13076 11.5145H6.50757C6.96781 11.5145 7.34091 11.8876 7.34091 12.3478V13.7246C7.34091 14.1849 6.96781 14.558 6.50757 14.558H5.13076C4.67052 14.558 4.29743 14.1849 4.29743 13.7246V12.3478ZM26.3264 12.3478C26.3264 11.8876 26.6995 11.5145 27.1597 11.5145H28.5366C28.9968 11.5145 29.3699 11.8876 29.3699 12.3478V13.7246C29.3699 14.1849 28.9968 14.558 28.5366 14.558H27.1597C26.6995 14.558 26.3264 14.1849 26.3264 13.7246V12.3478ZM4.29743 19.2319C4.29743 18.7717 4.67052 18.3986 5.13076 18.3986H6.50757C6.96781 18.3986 7.34091 18.7717 7.34091 19.2319V20.6087C7.34091 21.0689 6.96781 21.442 6.50757 21.442H5.13076C4.67052 21.442 4.29743 21.0689 4.29743 20.6087V19.2319ZM26.3264 19.2319C26.3264 18.7717 26.6995 18.3986 27.1597 18.3986H28.5366C28.9968 18.3986 29.3699 18.7717 29.3699 19.2319V20.6087C29.3699 21.0689 28.9968 21.442 28.5366 21.442H27.1597C26.6995 21.442 26.3264 21.0689 26.3264 20.6087V19.2319Z" fill="black" fill-opacity="0.87"/>
</svg>
