<svg width="16" height="16" viewBox="0 0 16 16" fill="none" xmlns="http://www.w3.org/2000/svg">
<path d="M11.587 8L11.8643 8.41603C12.0034 8.32329 12.087 8.16718 12.087 8C12.087 7.83282 12.0034 7.67671 11.8643 7.58398L11.587 8ZM5.71739 4.08696L5.99474 3.67093C5.84131 3.56865 5.64404 3.55911 5.48146 3.64612C5.31888 3.73313 5.21739 3.90256 5.21739 4.08696H5.71739ZM5.71739 11.913H5.21739C5.21739 12.0974 5.31888 12.2669 5.48146 12.3539C5.64404 12.4409 5.84131 12.4314 5.99474 12.3291L5.71739 11.913ZM15 8C15 11.866 11.866 15 8 15V16C12.4183 16 16 12.4183 16 8H15ZM8 15C4.13401 15 1 11.866 1 8H0C0 12.4183 3.58172 16 8 16V15ZM1 8C1 4.13401 4.13401 1 8 1V0C3.58172 0 0 3.58172 0 8H1ZM8 1C11.866 1 15 4.13401 15 8H16C16 3.58172 12.4183 0 8 0V1ZM11.8643 7.58398L5.99474 3.67093L5.44004 4.50298L11.3096 8.41603L11.8643 7.58398ZM5.21739 4.08696V11.913H6.21739V4.08696H5.21739ZM5.99474 12.3291L11.8643 8.41603L11.3096 7.58398L5.44004 11.497L5.99474 12.3291Z" fill="#43A047"/>
</svg>
