<svg width="12" height="16" viewBox="0 0 12 16" fill="none" xmlns="http://www.w3.org/2000/svg">
<path d="M7 4.25V0H0.75C0.334375 0 0 0.334375 0 0.75V15.25C0 15.6656 0.334375 16 0.75 16H11.25C11.6656 16 12 15.6656 12 15.25V5H7.75C7.3375 5 7 4.6625 7 4.25ZM8.78438 8H9.53125C9.77188 8 9.95 8.22188 9.89688 8.45938L8.70938 13.7094C8.67188 13.8813 8.51875 14 8.34375 14H7.15625C6.98438 14 6.83437 13.8812 6.79375 13.7156C5.9875 10.4812 6.14375 11.1781 5.99375 10.2625H5.97813C5.94375 10.7094 5.90313 10.8062 5.17812 13.7156C5.1375 13.8812 4.9875 14 4.81563 14H3.65625C3.48125 14 3.32813 13.8781 3.29063 13.7063L2.10938 8.45625C2.05625 8.22188 2.23438 8 2.475 8H3.24063C3.41875 8 3.575 8.125 3.60938 8.30313C4.09688 10.7406 4.2375 11.725 4.26562 12.1219C4.31563 11.8031 4.49375 11.1 5.18437 8.2875C5.225 8.11875 5.375 8.00313 5.55 8.00313H6.45938C6.63438 8.00313 6.78438 8.12187 6.825 8.29062C7.575 11.4281 7.725 12.1656 7.75 12.3344C7.74375 11.9844 7.66875 11.7781 8.425 8.29688C8.45625 8.12187 8.60938 8 8.78438 8ZM12 3.80938V4H8V0H8.19063C8.39062 0 8.58125 0.078125 8.72188 0.21875L11.7813 3.28125C11.9219 3.42188 12 3.6125 12 3.80938Z" fill="#2D9CDB"/>
</svg>
